<?xml version="1.0" encoding="UTF-8"?>
<!DOCTYPE svg PUBLIC "-//W3C//DTD SVG 1.1//EN" "http://www.w3.org/Graphics/SVG/1.1/DTD/svg11.dtd">
<!-- Creator: CorelDRAW (Versão de avaliação) -->
<svg xmlns="http://www.w3.org/2000/svg" xml:space="preserve" width="270.933mm" height="203.2mm" version="1.1" style="shape-rendering:geometricPrecision; text-rendering:geometricPrecision; image-rendering:optimizeQuality; fill-rule:evenodd; clip-rule:evenodd"
viewBox="0 0 27093.32 20320"
 xmlns:xlink="http://www.w3.org/1999/xlink"
 xmlns:xodm="http://www.corel.com/coreldraw/odm/2003">
 <defs>
  <style type="text/css">
   <![CDATA[
    .fil0 {fill:#FEF3E0}
    .fil1 {fill:white;fill-rule:nonzero}
   ]]>
  </style>
 </defs>
 <g id="Camada_x0020_1">
  <metadata id="CorelCorpID_0Corel-Layer"/>
  <g id="_474926344">
   <path class="fil0" d="M8058.32 9341.75c-341.71,160.93 -856.75,338.46 -1115.5,719.61 -112.53,165.74 -36.05,185.84 -22.69,197.92 147.75,104.85 883.87,-536.15 1201.09,-514.62l352.74 -115.2c769.41,-156.91 2263.08,-113.19 2699.58,448.38 152.98,196.81 77.66,552.72 -58.1,715.03 -472.13,564.44 -1467.18,667.57 -2192.53,632.36 -17.88,-369.83 310.45,-1263.72 -237.13,-1258.72 -54.27,113.26 -45.98,339.92 -117.63,439.52 25,187.08 -41.55,453.34 -53.55,658.01l-284.9 -4.22c-8.22,180.35 122.44,231.51 272.51,274.13 4.3,259.24 -17.67,920.76 154.82,1050.3 113.24,-49.98 143.63,-219.07 171.31,-373.92 29.81,-166.83 50.35,-342.82 64.02,-517.09 232.42,40.14 1045.81,313.94 1167.1,426.59 163.65,48.07 887.77,434.83 1117.36,548.29 182.68,90.28 362.83,184.93 554.59,264.75 162.14,67.49 603.17,155.1 601.18,-134.24l-1956.29 -838.5c-141.71,-60.37 -597.34,-223.6 -675.97,-308.23 2041.83,-187.39 2839.6,-2093.16 153.24,-2422.3 -758.95,-92.99 -1083.26,-24.67 -1795.25,112.15z"/>
   <path class="fil0" d="M13865.29 12244.47c-240.17,-219.67 -71.46,-1106.05 176.69,-1036.48 218.29,61.2 134.25,1001.43 -176.69,1036.48zm386.14 -139.62c165.96,358.67 485.25,92.17 647.39,-360.37 32,-89.3 44.28,-268.17 134.67,-307.55 48.83,65.33 -17.07,176.87 -26.74,363.01 -6.54,126.16 5.71,292 56.31,394.59 97.12,196.87 404.35,171.73 554.39,-158.47 47.35,79.81 42.29,165.53 112.85,231.61 54.25,50.81 167.46,93.66 262.75,45.59 160.37,-80.89 184.19,-282.94 280.63,-435.76 69.4,418.48 327.2,495.14 533.33,241.94 6.75,-8.3 33.04,-40.02 39.05,-46.32 27.97,-29.32 20.43,-21.51 50.34,-46.55l-61.28 965.7c-12.98,311.96 349.36,135.77 371.37,-106.5 16.78,-184.75 7.88,-414.32 11.82,-605 4.45,-215.6 70.73,-1112.39 31.93,-1241.12 -391.45,-193.12 -303.74,205.08 -341.54,412.73 -23.62,129.72 -143.13,512.02 -261.26,565.03 -143.26,-189.79 16.09,-557.3 -4.68,-796.82 -74.94,-57.95 -156.71,-101.17 -286.36,-80.32 -155.26,180.23 -185.95,823.06 -383.07,910.93 -57.41,-230.59 91.9,-724.6 64.24,-1019.81 -437.74,-211.43 -364.28,329.37 -386.62,436.1 -30.98,148.07 -178.15,563.56 -301.15,618.69 -146.1,-238.22 123.06,-691.31 -3.73,-791.59 -86.82,-43.67 -168.1,-5.65 -283.24,-14.43 24.02,-124.18 39.27,-296.66 -139.95,-227.62 -226.04,87.08 -0.32,160.78 -205.3,670.19 -74.42,184.94 -75.22,263.55 -186.8,287.8 -79.94,-154.73 -31.13,-439.06 -2.86,-607.89 38.72,-231.32 -24.34,-392.93 -288.18,-284.4 -76.14,-79.32 -116.77,-158.75 -290.95,-156.39 -787.13,10.64 -574.81,1922.28 95.42,1411.2 92.95,-70.89 110.65,-153.29 191.06,-250.48 3.78,-4.57 10.44,-12.14 16.16,-17.72z"/>
   <path class="fil0" d="M12162 11214.16c199.12,445.79 -59.59,1137.38 -246.45,1008.9 -150.27,-103.33 -150.52,-1069.57 246.45,-1008.9zm513.69 -445.62c21.17,124.64 69.9,93.23 163.6,126.99l45.62 19.97c6.37,2.74 16.1,6.76 23.15,11.79 -22.13,345.54 -4.01,647.13 -206.23,1001.43 -60.98,106.83 -14.68,69.38 -102.51,80.2 -153.42,-335.61 239.65,-928.67 -183.11,-914.91 -150.08,4.88 -47.76,66.89 -163.75,-29.78 -105.6,-88.02 -175.61,-147.37 -362.23,-79 -430.79,157.82 -508.56,1129.82 -162.02,1395.39 311.3,238.57 495.2,-147.26 544.31,-219.78 22.35,-33.02 23.87,-32.61 35.76,-43.59 83.6,84.5 150.09,175.62 310.99,132.63 105.75,-28.26 168.48,-149.51 240.55,-232.56 16.68,145 -40.45,349.97 30.54,470.76 137.1,53.06 269.87,-19.48 308.04,-113.54 50.6,-124.69 22.24,-349.06 20.94,-494.75 -2.8,-314.88 -19.84,-677.49 6.41,-987.53 163.21,-43.63 236,31.28 346.2,-90.61 -40.57,-150.51 -183.86,-112.76 -338.59,-112.76 7.21,-184.63 -2.66,-364.69 106.79,-425.33 38.28,44.83 40.99,62.5 27.8,156.73 -13.36,95.5 -29.77,68.02 -21.65,184.64 412.66,99.41 360.55,-595.15 -98.26,-483.6 -324.05,78.78 -264.75,505.34 -331.16,566.44 -55.93,51.45 -124.02,-15.96 -241.19,80.77z"/>
   <path class="fil0" d="M17931.3 11139.06c127.09,2.76 139.56,18.21 175.51,127.94 58.62,178.95 86.8,596.36 -71.13,648.63 -233.86,77.39 -249.29,-577.56 -104.38,-776.57zm-261.64 -48.52c-38.39,108.61 -292.24,431.26 -116.74,809.38 184.7,397.95 594.51,175.51 716.44,129.47 109.76,-200.03 300.89,-503.32 102.11,-842.79 -234.23,-400 -590.2,-152.66 -701.81,-96.06z"/>
   <path class="fil0" d="M16859.24 10453.69c-17.17,105.23 -167.36,200.97 44.53,324.05 119.52,69.42 265.43,81.03 403.49,35.89 166.15,-90.58 224.93,-251.85 42.64,-352.05 -160.35,-88.15 -330.45,-51.38 -490.66,-7.89z"/>
  </g>
  <path class="fil1" d="M10300.75 13895.97c0,69.99 -13.13,128.41 -39.51,175.26 -26.11,46.85 -62.94,81.84 -110.35,104.99 -47.42,23.14 -103.3,34.71 -167.64,34.71l-195.87 0 0 -604.66 209.27 0c64.91,0 119.95,11.14 165.1,33.58 45.3,22.3 79.73,54.89 103.44,97.93 23.7,42.9 35.56,95.68 35.56,158.19zm-169.62 5.93c0,-36.69 -4.94,-67.17 -14.82,-91.3 -9.73,-24.42 -24.41,-42.62 -44.02,-54.47 -19.48,-11.86 -44.17,-17.78 -73.95,-17.78l-47.41 0 0 338.81 36.41 0c49.81,0 86.08,-14.4 109.08,-43.18 23.14,-28.79 34.71,-72.82 34.71,-132.08zm1081.24 309.03l-359.13 0 0 -604.66 359.13 0 0 131.37 -195.58 0 0 94.83 181.05 0 0 131.23 -181.05 0 0 114.3 195.58 0 0 132.93zm945.63 -183.73c0,32.74 -8.33,63.79 -25.12,93.14 -16.51,29.35 -42.05,53.2 -76.76,71.54 -34.86,18.34 -79.87,27.52 -135.33,27.52 -27.52,0 -51.51,-1.27 -72.25,-3.95 -20.46,-2.4 -39.93,-6.5 -58.14,-12.14 -18.06,-5.64 -36.69,-12.98 -55.74,-21.87l0 -145.77c32.74,16.37 65.76,28.93 98.92,37.82 33.45,8.61 63.64,12.98 90.74,12.98 16.51,0 29.77,-1.98 39.79,-5.79 10.16,-3.95 17.78,-9.31 22.86,-16.08 5.08,-6.92 7.62,-14.54 7.62,-23 0,-10.73 -3.67,-19.76 -11.15,-27.1 -7.19,-7.48 -18.76,-15.1 -34.71,-22.86 -15.66,-7.9 -36.83,-17.78 -63.36,-29.63 -22.72,-10.16 -43.04,-20.89 -61.1,-32.17 -17.92,-11.29 -33.3,-23.99 -46,-38.1 -12.7,-14.26 -22.44,-30.77 -29.21,-49.53 -6.78,-18.91 -10.16,-41.35 -10.16,-67.17 0,-39.09 9.59,-71.69 28.78,-97.79 19.19,-26.39 45.86,-46.15 80.01,-59.41 34.15,-13.41 73.81,-20.04 119.1,-20.04 39.37,0 74.93,4.37 106.4,13.26 31.75,8.61 59.97,18.63 84.81,29.92l-49.81 126.29c-26.11,-11.85 -51.65,-21.3 -76.77,-28.22 -24.98,-7.19 -48.26,-10.72 -69.85,-10.72 -13.97,0 -25.54,1.69 -34.71,5.08 -9.17,3.24 -15.81,7.9 -20.04,13.83 -4.09,5.92 -6.21,12.56 -6.21,20.03 0,9.6 3.67,18.07 11.01,25.55 7.48,7.19 19.61,15.24 36.69,24.13 17.21,8.6 40.78,19.75 70.69,33.3 29.35,12.98 54.33,27.23 74.93,42.76 20.61,15.66 36.41,34 47.42,55.17 11.15,21.03 16.65,47.41 16.65,79.02zm816.09 183.73l-314.96 0 0 -93.27 75.35 -28.65 0 -361.53 -75.35 -27.94 0 -93.27 314.96 0 0 93.27 -75.5 27.94 0 361.53 75.5 28.65 0 93.27zm781.37 -353.91l260.91 0 0 325.97c-31.18,10.87 -66.88,19.61 -107.38,26.25 -40.22,6.77 -82.27,10.16 -126.44,10.16 -58.14,0 -109.08,-11.29 -152.96,-33.87 -43.61,-22.58 -77.76,-57.01 -102.31,-103.15 -24.55,-46.29 -36.83,-104.71 -36.83,-175.26 0,-63.36 12.14,-118.11 36.41,-164.4 24.27,-46.28 59.97,-81.98 107.1,-107.1 47.13,-25.26 105.13,-37.82 173.99,-37.82 37.82,0 73.66,3.53 107.53,10.72 33.87,7.06 63.22,16.23 88.05,27.52l-51.64 127.85c-21.31,-10.87 -43.89,-18.77 -67.6,-23.99 -23.7,-5.5 -48.82,-8.19 -75.49,-8.19 -36.13,0 -65.2,8.19 -87.21,24.7 -22.15,16.23 -38.1,37.96 -47.98,65.05 -9.73,26.95 -14.67,56.87 -14.67,89.75 0,37.11 5.36,68.72 16.08,94.83 10.87,25.96 26.39,45.57 46.57,58.98 20.46,13.12 45.3,19.76 74.65,19.76 9.45,0 21.17,-0.71 34.85,-1.98 13.97,-1.55 24.56,-3.1 31.89,-4.8l0 -94.82 -107.52 0 0 -126.16zm1403.68 353.91l-214.35 0 -220.84 -425.88 -3.39 0c1.13,12.99 2.26,28.65 3.39,47 1.27,18.34 2.26,36.83 2.96,55.45 0.85,18.49 1.27,35.42 1.27,50.8l0 272.63 -144.92 0 0 -604.66 213.65 0 220.13 420.09 2.4 0c-0.57,-12.99 -1.41,-28.23 -2.68,-45.72 -1.13,-17.5 -1.98,-35.28 -2.4,-53.34 -0.57,-18.07 -0.85,-33.87 -0.85,-47.56l0 -273.47 145.63 0 0 604.66zm933.77 0l-359.13 0 0 -604.66 359.13 0 0 131.37 -195.58 0 0 94.83 181.05 0 0 131.23 -181.05 0 0 114.3 195.58 0 0 132.93zm748.35 -604.66c54.76,0 100.33,6.77 136.6,20.46 36.55,13.54 64.07,33.44 82.27,59.83 18.34,26.1 27.52,58.98 27.52,98.49 0,24.28 -4.1,46.57 -12.42,67.03 -8.05,20.18 -19.76,38.24 -35.14,54.19 -15.1,15.66 -33.44,29.49 -54.89,41.35l176.11 263.31 -185.43 0 -127.7 -220.13 -41.63 0 0 220.13 -163.55 0 0 -604.66 198.26 0zm-2.39 123.61l-32.32 0 0 138.15 30.34 0c24.98,0 45.58,-5.5 61.52,-16.51 16.09,-11.15 24.13,-30.62 24.13,-58.7 0,-13.13 -2.82,-24.42 -8.46,-33.59 -5.65,-9.31 -14.68,-16.51 -27.1,-21.59 -12.41,-5.22 -28.5,-7.76 -48.11,-7.76z"/>
 </g>
</svg>
